<?xml version="1.0" standalone="no"?><!DOCTYPE svg PUBLIC "-//W3C//DTD SVG 1.1//EN" "http://www.w3.org/Graphics/SVG/1.1/DTD/svg11.dtd"><svg t="1627277544656" class="icon" viewBox="0 0 1024 1024" version="1.1" xmlns="http://www.w3.org/2000/svg" p-id="4254" xmlns:xlink="http://www.w3.org/1999/xlink" width="200" height="200"><defs><style type="text/css">@font-face { font-family: feedback-iconfont; src: url("//at.alicdn.com/t/font_1031158_1uhr8ri0pk5.eot?#iefix") format("embedded-opentype"), url("//at.alicdn.com/t/font_1031158_1uhr8ri0pk5.woff2") format("woff2"), url("//at.alicdn.com/t/font_1031158_1uhr8ri0pk5.woff") format("woff"), url("//at.alicdn.com/t/font_1031158_1uhr8ri0pk5.ttf") format("truetype"), url("//at.alicdn.com/t/font_1031158_1uhr8ri0pk5.svg#iconfont") format("svg"); }
</style></defs><path d="M940.8 384.6c-36.4-148.8-183.5-130.2-293.6-45.5-46.6 35.9-81.3 74.2-104.8 108-7.3-1.9-14.9-2.9-22.8-2.9-5.4 0-10.8 0.5-16 1.4-15.4-45-23-102 15-166.3 63.5-107.4 87-184.3 7.1-193.1-152.1-16.7-185 128-143 260.3 17.5 55.3 41.3 100.5 64.7 134-9.3 12.5-15.4 27.5-17.2 43.8-47.1 0.8-102.7-9.6-151.9-64.4C195 367 128.7 321.5 96.3 395c-61.7 140.2 66.3 215.1 205.2 214.8 57.6-0.1 107.6-9.1 146.6-21.2 9.4 12.3 21.9 22.2 36.4 28.3-13.3 45.4-39.8 95.9-107.4 126.5-113.6 51.5-177 101.1-116.6 154.1 115.1 101 225 1.4 266.6-131.1 17.5-55.8 23.9-106.9 23.9-147.9 13.7-5.1 25.9-13.4 35.5-24.1 39.6 26.3 80.5 66.9 89.5 141.2 15 123.8 43.2 199.2 111.9 157.5 131-79.4 69-214.2-44.9-293.7-47.7-33.3-94.3-54.7-133.3-67.1-0.3-16.9-5.3-32.7-13.7-46.1 37-29.7 87.8-56.2 161-42.4 122.5 23.1 202.9 18.9 183.8-59.2zM493.7 571c-2.9-2-5.5-4.4-7.8-7-0.5-0.6-1.1-1.3-1.6-1.9 0-0.1-0.1-0.1-0.1-0.2-0.5-0.7-1-1.3-1.5-2v-0.1c-1-1.4-1.9-2.9-2.7-4.5 0-0.1-0.1-0.2-0.1-0.3-0.3-0.6-0.7-1.3-1-2-0.1-0.2-0.2-0.4-0.2-0.5-0.3-0.6-0.5-1.2-0.8-1.8-0.1-0.2-0.2-0.4-0.2-0.6-0.3-0.7-0.5-1.4-0.7-2.1 0-0.1-0.1-0.2-0.1-0.3-0.3-0.8-0.5-1.6-0.7-2.5 0-0.1-0.1-0.3-0.1-0.4-0.2-0.7-0.3-1.3-0.4-2-0.1-0.3-0.1-0.5-0.1-0.8-0.1-0.6-0.2-1.1-0.3-1.7 0-0.3-0.1-0.6-0.1-0.9-0.1-0.6-0.1-1.2-0.2-1.8 0-0.3 0-0.5-0.1-0.8 0-0.9-0.1-1.7-0.1-2.6 0-0.7 0-1.4 0.1-2.1v-0.6c0-0.5 0.1-1 0.1-1.5 0-0.2 0-0.5 0.1-0.7 0.1-0.6 0.1-1.1 0.2-1.7v-0.3c0.1-0.6 0.2-1.3 0.3-1.9 0-0.2 0.1-0.5 0.2-0.7l0.3-1.2c0.1-0.3 0.1-0.5 0.2-0.8 0.1-0.4 0.2-0.9 0.4-1.3 0.1-0.2 0.1-0.4 0.2-0.6 0.3-0.9 0.6-1.7 0.9-2.6 0.6-1.6 1.3-3.1 2-4.5 0 0 0-0.1 0.1-0.1 0.2-0.5 0.5-0.9 0.7-1.4 0-0.1 0.1-0.1 0.1-0.2 0.8-1.4 1.7-2.7 2.6-4 0 0 0-0.1 0.1-0.1l0.9-1.2c0.1-0.1 0.2-0.2 0.2-0.3 0.3-0.4 0.6-0.8 0.9-1.1l0.1-0.1c0.7-0.8 1.4-1.6 2.1-2.3l0.1-0.1 0.9-0.9 0.4-0.4c0.3-0.3 0.6-0.6 0.9-0.8 0.2-0.1 0.3-0.3 0.5-0.4 1-0.9 2-1.7 3.1-2.5 0.2-0.2 0.5-0.3 0.7-0.5l0.9-0.6c0.3-0.2 0.5-0.3 0.8-0.5 0.3-0.2 0.5-0.3 0.8-0.5 0.4-0.2 0.8-0.4 1.1-0.7 0.3-0.2 0.7-0.4 1-0.6 0.4-0.2 0.7-0.4 1.1-0.6 0.3-0.1 0.5-0.2 0.8-0.4 0.3-0.2 0.7-0.3 1.1-0.5 0.3-0.1 0.5-0.2 0.8-0.3 0.4-0.2 0.9-0.4 1.3-0.5 0.2-0.1 0.3-0.1 0.5-0.2l1.8-0.6c0.2-0.1 0.4-0.1 0.6-0.2 0.4-0.1 0.9-0.3 1.3-0.4 0.2-0.1 0.5-0.1 0.7-0.2 0.5-0.1 0.9-0.2 1.4-0.3 0.2 0 0.4-0.1 0.6-0.1 0.7-0.1 1.3-0.3 2-0.4 0.1 0 0.3 0 0.4-0.1 0.5-0.1 1.1-0.1 1.6-0.2 0.2 0 0.5 0 0.7-0.1 0.5 0 1-0.1 1.5-0.1h0.6c0.7 0 1.4-0.1 2.1-0.1 0.7 0 1.4 0 2.1 0.1h0.6c0.5 0 1 0.1 1.5 0.1 0.2 0 0.4 0 0.7 0.1 0.6 0.1 1.1 0.1 1.7 0.2h0.3c0.7 0.1 1.3 0.2 2 0.4 0.2 0 0.4 0.1 0.6 0.1 0.5 0.1 0.9 0.2 1.4 0.3 0.2 0.1 0.5 0.1 0.7 0.2 0.5 0.1 0.9 0.3 1.4 0.4 0.2 0.1 0.4 0.1 0.6 0.2l1.8 0.6c0.2 0.1 0.4 0.2 0.7 0.3 0.4 0.1 0.8 0.3 1.2 0.5 0.3 0.1 0.5 0.2 0.8 0.3 0.3 0.2 0.7 0.3 1 0.5 0.3 0.1 0.5 0.2 0.8 0.4 0.5 0.2 1 0.5 1.5 0.8 0.3 0.2 0.6 0.3 0.9 0.5 0.3 0.2 0.6 0.3 0.9 0.5 0.3 0.2 0.6 0.4 0.9 0.5 0.2 0.2 0.5 0.3 0.7 0.5l0.9 0.6c0.2 0.1 0.4 0.3 0.5 0.4 0.6 0.4 1.2 0.9 1.8 1.4 0.1 0.1 0.3 0.2 0.4 0.3 0.3 0.3 0.7 0.5 1 0.8 0.1 0.1 0.3 0.2 0.4 0.4 0.3 0.3 0.7 0.6 1 0.9l0.2 0.2c1.1 1 2.2 2.2 3.2 3.3l0.2 0.2c0.3 0.4 0.7 0.8 1 1.2 1 1.3 2 2.6 2.9 4 1.5 2.3 2.7 4.8 3.8 7.4 0.5 1.2 0.9 2.4 1.3 3.6 0.3 0.9 0.5 1.7 0.7 2.6 0.1 0.3 0.1 0.5 0.2 0.8 0.1 0.3 0.1 0.7 0.2 1 0.1 0.4 0.1 0.7 0.2 1.1 0 0.3 0.1 0.6 0.1 0.8 0.1 0.6 0.2 1.2 0.2 1.9 0 0.2 0 0.5 0.1 0.7 0 0.5 0.1 1 0.1 1.4v0.6c0 0.7 0.1 1.4 0.1 2.1 0 24.9-20.1 45-45 45-0.7 0-1.4 0-2.1-0.1h-0.6c-0.5 0-1-0.1-1.5-0.1-0.2 0-0.4 0-0.6-0.1-0.7-0.1-1.3-0.2-2-0.3-0.1 0-0.3 0-0.4-0.1-0.5-0.1-1-0.2-1.6-0.3-0.2 0-0.5-0.1-0.7-0.2l-1.2-0.3c-0.2-0.1-0.5-0.1-0.7-0.2-0.6-0.2-1.2-0.3-1.7-0.5-0.3-0.1-0.5-0.2-0.8-0.3-0.3-0.1-0.7-0.2-1-0.3l-0.9-0.3c-0.3-0.1-0.6-0.2-0.8-0.3-1.2-0.5-2.3-1-3.5-1.6l-0.6-0.3c-0.4-0.2-0.7-0.4-1-0.6-0.2-0.1-0.3-0.2-0.5-0.3l-2.4-1.5c-0.9-0.1-1.3-0.3-1.7-0.6z" fill="#000000" p-id="4255"></path></svg>