<?xml version="1.0" standalone="no"?><!DOCTYPE svg PUBLIC "-//W3C//DTD SVG 1.1//EN" "http://www.w3.org/Graphics/SVG/1.1/DTD/svg11.dtd"><svg t="1627277561052" class="icon" viewBox="0 0 1024 1024" version="1.1" xmlns="http://www.w3.org/2000/svg" p-id="4954" xmlns:xlink="http://www.w3.org/1999/xlink" width="200" height="200"><defs><style type="text/css">@font-face { font-family: feedback-iconfont; src: url("//at.alicdn.com/t/font_1031158_1uhr8ri0pk5.eot?#iefix") format("embedded-opentype"), url("//at.alicdn.com/t/font_1031158_1uhr8ri0pk5.woff2") format("woff2"), url("//at.alicdn.com/t/font_1031158_1uhr8ri0pk5.woff") format("woff"), url("//at.alicdn.com/t/font_1031158_1uhr8ri0pk5.ttf") format("truetype"), url("//at.alicdn.com/t/font_1031158_1uhr8ri0pk5.svg#iconfont") format("svg"); }
</style></defs><path d="M550.412782 267.16662h59.924886v276.532575h-59.924886zM365.732149 231.327009v17.98997a17.849641 17.849641 0 0 0 17.849641 17.849641h391.348545v-53.689252H383.58179a17.849641 17.849641 0 0 0-17.849641 17.849641z m586.640037-8.058529l-150.61112-87.690684c-11.900224-6.928945-26.830732 1.656167-26.830731 15.422356v175.203526c0 13.763411 14.918004 22.348523 26.815448 15.433471l150.61112-87.518399c11.837701-6.87198 11.844648-23.964397 0.013894-30.851659zM63.83744 78.056575l55.853939 154.584807a17.849641 17.849641 0 0 1 0 12.132254L63.840219 399.29731C59.63589 410.933548 68.255737 423.211688 80.628357 423.211688h44.228817a17.849641 17.849641 0 0 0 8.974144-2.420337l286.544602-166.657317c11.833532-6.881705 11.833532-23.974122 0-30.858607L133.831318 56.563923a17.849641 17.849641 0 0 0-8.976923-2.421726H80.625578c-12.371231 0-20.992467 12.27953-16.788138 23.914378z m437.383583 896.359855V561.548835A17.849641 17.849641 0 0 1 519.08039 543.699195h122.598007a17.849641 17.849641 0 0 1 17.849641 17.84964v412.867595a17.849641 17.849641 0 0 1-17.849641 17.84964H519.08039a17.849641 17.849641 0 0 1-17.855198-17.84964z m0 17.84964" p-id="4955" fill="#000000"></path></svg>