<?xml version="1.0" standalone="no"?><!DOCTYPE svg PUBLIC "-//W3C//DTD SVG 1.1//EN" "http://www.w3.org/Graphics/SVG/1.1/DTD/svg11.dtd"><svg t="1627277414378" class="icon" viewBox="0 0 1026 1024" version="1.1" xmlns="http://www.w3.org/2000/svg" p-id="1433" xmlns:xlink="http://www.w3.org/1999/xlink" width="200.390625" height="200"><defs><style type="text/css">@font-face { font-family: feedback-iconfont; src: url("//at.alicdn.com/t/font_1031158_1uhr8ri0pk5.eot?#iefix") format("embedded-opentype"), url("//at.alicdn.com/t/font_1031158_1uhr8ri0pk5.woff2") format("woff2"), url("//at.alicdn.com/t/font_1031158_1uhr8ri0pk5.woff") format("woff"), url("//at.alicdn.com/t/font_1031158_1uhr8ri0pk5.ttf") format("truetype"), url("//at.alicdn.com/t/font_1031158_1uhr8ri0pk5.svg#iconfont") format("svg"); }
</style></defs><path d="M960 567.466667s-102.4 64-226.133333 64c-59.733333 0-115.2-21.333333-179.2-46.933334-68.266667-25.6-140.8-55.466667-230.4-59.733333-183.466667-12.8-298.666667 89.6-302.933334 93.866667-17.066667 17.066667-17.066667 42.666667-4.266666 59.733333 17.066667 17.066667 42.666667 17.066667 59.733333 4.266667 0 0 93.866667-81.066667 238.933333-72.533334 76.8 4.266667 145.066667 29.866667 204.8 55.466667 68.266667 25.6 136.533333 51.2 213.333334 51.2 149.333333 0 268.8-72.533333 273.066666-76.8 21.333333-12.8 25.6-38.4 12.8-59.733333s-42.666667-25.6-59.733333-12.8z" p-id="1434" fill="#000000"></path><path d="M247.466667 375.466667m-106.666667 0a106.666667 106.666667 0 1 0 213.333333 0 106.666667 106.666667 0 1 0-213.333333 0Z" p-id="1435" fill="#000000"></path><path d="M76.8 213.333333m-76.8 0a76.8 76.8 0 1 0 153.6 0 76.8 76.8 0 1 0-153.6 0Z" p-id="1436" fill="#000000"></path><path d="M375.466667 132.266667m-89.6 0a89.6 89.6 0 1 0 179.2 0 89.6 89.6 0 1 0-179.2 0Z" p-id="1437" fill="#000000"></path><path d="M546.133333 396.8m-76.8 0a76.8 76.8 0 1 0 153.6 0 76.8 76.8 0 1 0-153.6 0Z" p-id="1438" fill="#000000"></path><path d="M699.733333 192m-93.866666 0a93.866667 93.866667 0 1 0 187.733333 0 93.866667 93.866667 0 1 0-187.733333 0Z" p-id="1439" fill="#000000"></path><path d="M776.533333 490.666667m-93.866666 0a93.866667 93.866667 0 1 0 187.733333 0 93.866667 93.866667 0 1 0-187.733333 0Z" p-id="1440" fill="#000000"></path><path d="M960 273.066667m-64 0a64 64 0 1 0 128 0 64 64 0 1 0-128 0Z" p-id="1441" fill="#000000"></path><path d="M209.066667 725.333333H136.533333c-17.066667 0-34.133333 12.8-34.133333 34.133334v192c0 17.066667 12.8 34.133333 34.133333 34.133333s34.133333-12.8 34.133334-34.133333V896h42.666666c46.933333 0 85.333333-38.4 85.333334-85.333333s-42.666667-85.333333-89.6-85.333334z m0 102.4h-42.666667v-38.4h42.666667c12.8 0 21.333333 8.533333 21.333333 21.333334s-8.533333 17.066667-21.333333 17.066666zM512 725.333333c-12.8-4.266667-25.6 4.266667-34.133333 17.066667l-42.666667 89.6-42.666667-89.6c-4.266667-12.8-17.066667-17.066667-29.866666-17.066667-12.8 0-25.6 12.8-25.6 25.6L298.666667 942.933333c-4.266667 17.066667 8.533333 34.133333 25.6 38.4 17.066667 4.266667 34.133333-8.533333 38.4-25.6l17.066666-93.866666 29.866667 59.733333c4.266667 8.533333 17.066667 17.066667 29.866667 17.066667s25.6-8.533333 29.866666-17.066667l29.866667-59.733333 17.066667 93.866666c4.266667 17.066667 17.066667 25.6 29.866666 25.6h4.266667c17.066667-4.266667 29.866667-21.333333 25.6-38.4l-34.133333-192c-4.266667-12.8-17.066667-21.333333-29.866667-25.6zM836.266667 725.333333c-46.933333 0-85.333333 38.4-85.333334 85.333334v85.333333c0 46.933333 38.4 85.333333 85.333334 85.333333s85.333333-38.4 85.333333-85.333333v-85.333333c0-46.933333-38.4-85.333333-85.333333-85.333334z m21.333333 170.666667c0 12.8-8.533333 21.333333-21.333333 21.333333s-21.333333-8.533333-21.333334-21.333333v-85.333333c0-12.8 8.533333-21.333333 21.333334-21.333334s21.333333 8.533333 21.333333 21.333334v85.333333zM699.733333 729.6c-12.8-4.266667-25.6-4.266667-34.133333 4.266667l-64 59.733333c-12.8 12.8-12.8 34.133333 0 46.933333 12.8 12.8 34.133333 12.8 46.933333 0l8.533334-8.533333v119.466667c0 17.066667 12.8 34.133333 34.133333 34.133333s34.133333-12.8 34.133333-34.133333v-192c-8.533333-12.8-12.8-25.6-25.6-29.866667z" p-id="1442" fill="#000000"></path></svg>