<?xml version="1.0" standalone="no"?><!DOCTYPE svg PUBLIC "-//W3C//DTD SVG 1.1//EN" "http://www.w3.org/Graphics/SVG/1.1/DTD/svg11.dtd"><svg t="1627277604391" class="icon" viewBox="0 0 1024 1024" version="1.1" xmlns="http://www.w3.org/2000/svg" p-id="6000" xmlns:xlink="http://www.w3.org/1999/xlink" width="200" height="200"><defs><style type="text/css">@font-face { font-family: feedback-iconfont; src: url("//at.alicdn.com/t/font_1031158_1uhr8ri0pk5.eot?#iefix") format("embedded-opentype"), url("//at.alicdn.com/t/font_1031158_1uhr8ri0pk5.woff2") format("woff2"), url("//at.alicdn.com/t/font_1031158_1uhr8ri0pk5.woff") format("woff"), url("//at.alicdn.com/t/font_1031158_1uhr8ri0pk5.ttf") format("truetype"), url("//at.alicdn.com/t/font_1031158_1uhr8ri0pk5.svg#iconfont") format("svg"); }
</style></defs><path d="M826.141696 257.214464c0-40.318976-32.685056-73.00608-73.00608-73.00608-54.754304 0-73.00608 32.687104-73.00608 73.00608 0 40.321024 32.685056 73.007104 73.00608 73.007104S826.141696 297.535488 826.141696 257.214464z" p-id="6001" fill="#000000"></path><path d="M668.35456 438.5536c-40.321024 0-73.00608 32.687104-73.00608 73.00608 0 40.321024 4.424704 73.008128 44.745728 73.008128 84.78208 0 101.266432-32.687104 101.266432-73.008128C741.36064 471.240704 708.675584 438.5536 668.35456 438.5536z" p-id="6002" fill="#000000"></path><path d="M498.7904 415.003648c40.321024 0 66.156544-5.01248 73.00608-44.746752 11.776-68.29568-32.685056-101.266432-73.00608-101.266432s-73.00608 32.687104-73.00608 73.00608C425.785344 382.317568 458.4704 415.003648 498.7904 415.003648z" p-id="6003" fill="#000000"></path><path d="M272.70656 415.003648c40.321024 0 73.00608-32.687104 73.00608-73.007104 0-40.318976 0-73.00608-73.00608-73.00608-40.321024 0-73.00608 32.687104-73.00608 73.00608C199.70048 382.317568 232.385536 415.003648 272.70656 415.003648z" p-id="6004" fill="#000000"></path><path d="M260.93056 568.080384c0-40.318976-14.718976-73.00608-73.00608-73.00608-40.321024 0-73.00608 32.687104-73.00608 73.00608 0 40.321024 32.685056 73.008128 73.00608 73.008128S260.93056 608.401408 260.93056 568.080384z" p-id="6005" fill="#000000"></path><path d="M272.70656 692.898816c-40.321024 0-73.00608 13.5424-73.00608 73.00608 0 40.321024 32.685056 73.008128 73.00608 73.008128s73.00608-32.687104 73.00608-73.008128C345.71264 725.584896 313.027584 692.898816 272.70656 692.898816z" p-id="6006" fill="#000000"></path><path d="M583.57248 664.638464c-40.321024 0-101.157888 0.75776-90.669056 73.00608 10.597376 73.007104 50.348032 73.007104 90.669056 73.007104 40.321024 0 73.00608-32.687104 73.00608-73.007104C656.57856 697.324544 623.893504 664.638464 583.57248 664.638464z" p-id="6007" fill="#000000"></path><path d="M837.917696 664.638464c-40.321024 0-73.00608 32.687104-73.00608 73.00608 0 40.321024 18.250752 73.007104 73.00608 73.007104 40.321024 0 73.00608-32.687104 73.00608-73.007104C910.923776 697.324544 878.23872 664.638464 837.917696 664.638464z" p-id="6008" fill="#000000"></path><path d="M414.009344 517.448704c-58.287104 0-78.895104 35.321856-78.895104 78.893056 0 43.572224 35.321856 78.895104 78.895104 78.895104s78.895104-35.321856 78.895104-78.895104C492.903424 552.77056 475.829248 517.448704 414.009344 517.448704z" p-id="6009" fill="#000000"></path></svg>