<?xml version="1.0" standalone="no"?><!DOCTYPE svg PUBLIC "-//W3C//DTD SVG 1.1//EN" "http://www.w3.org/Graphics/SVG/1.1/DTD/svg11.dtd"><svg t="1627969671018" class="icon" viewBox="0 0 1024 1024" version="1.1" xmlns="http://www.w3.org/2000/svg" p-id="4894" xmlns:xlink="http://www.w3.org/1999/xlink" width="200" height="200"><defs><style type="text/css"></style></defs><path d="M820 759c17.673 0 32 14.327 32 32 0 8.36-2.904 16.274-8.154 21.974C761.886 903.287 643.566 960 512 960 264.576 960 64 759.424 64 512S264.576 64 512 64c162.965 0 305.607 87.013 384 217.114V96c0-17.673 14.327-32 32-32 17.673 0 32 14.327 32 32v263c0 17.673-14.327 32-32 32H665c-17.673 0-32-14.327-32-32 0-17.673 14.327-32 32-32h183.58C783.238 208.373 657.005 128 512 128c-212.077 0-384 171.923-384 384s171.923 384 384 384c111.054 0 211.097-47.143 281.21-122.507C801 766 808.789 759 820 759z" p-id="4895" fill="#8a8a8a"></path></svg>