<?xml version="1.0" standalone="no"?><!DOCTYPE svg PUBLIC "-//W3C//DTD SVG 1.1//EN" "http://www.w3.org/Graphics/SVG/1.1/DTD/svg11.dtd"><svg t="1627969982436" class="icon" viewBox="0 0 1024 1024" version="1.1" xmlns="http://www.w3.org/2000/svg" p-id="19413" xmlns:xlink="http://www.w3.org/1999/xlink" width="200" height="200"><defs><style type="text/css"></style></defs><path d="M509.44 51.2A458.24 458.24 0 1 0 967.68 509.44 458.752 458.752 0 0 0 509.44 51.2z m0 848.00512A389.76512 389.76512 0 1 1 899.20512 509.44 390.20544 390.20544 0 0 1 509.44 899.20512z m127.03232-471.7568L523.264 362.08128a105.50784 105.50784 0 0 0-158.27456 91.37152V584.192a105.28256 105.28256 0 0 0 158.27456 91.37152l113.22368-65.36704a105.51808 105.51808 0 0 0-0.01536-182.74816z m-34.23744 123.46368l-113.21856 65.35168A37.03808 37.03808 0 0 1 433.4592 584.192V453.4528a36.38272 36.38272 0 0 1 18.51904-32.0768 38.144 38.144 0 0 1 18.70336-5.12 36.24448 36.24448 0 0 1 18.33472 5.12l113.21856 65.36704a37.03808 37.03808 0 0 1 0 64.16896z" fill="#556FB5" p-id="19414"></path><path d="M636.47232 427.44832L523.264 362.08128a105.50784 105.50784 0 0 0-158.27456 91.37152V584.192a105.28256 105.28256 0 0 0 158.27456 91.37152l113.22368-65.36704a105.51808 105.51808 0 0 0-0.01536-182.74816z m-34.23744 123.46368l-113.21856 65.35168A37.03808 37.03808 0 0 1 433.4592 584.192V453.4528a36.38272 36.38272 0 0 1 18.51904-32.0768 38.144 38.144 0 0 1 18.70336-5.12 36.24448 36.24448 0 0 1 18.33472 5.12l113.21856 65.36704a37.03808 37.03808 0 0 1 0 64.16896z" fill="#F19149" p-id="19415"></path></svg>