<?xml version="1.0" standalone="no"?><!DOCTYPE svg PUBLIC "-//W3C//DTD SVG 1.1//EN" "http://www.w3.org/Graphics/SVG/1.1/DTD/svg11.dtd"><svg t="1627969651222" class="icon" viewBox="0 0 1024 1024" version="1.1" xmlns="http://www.w3.org/2000/svg" p-id="3952" xmlns:xlink="http://www.w3.org/1999/xlink" width="200" height="200"><defs><style type="text/css"></style></defs><path d="M170.666667 106.666667l0.192 736H906.666667v64H149.546667c-23.552 0-42.666667-19.093333-42.666667-42.666667L106.666667 106.666667h64z m686.506666 454.144l13.653334 16.362666a21.333333 21.333333 0 0 1-2.666667 30.058667l-171.157333 143.146667a21.333333 21.333333 0 0 1-21.546667 3.477333l-229.973333-91.285333-113.834667 94.997333a21.333333 21.333333 0 0 1-30.037333-2.709333l-13.653334-16.362667a21.333333 21.333333 0 0 1 2.688-30.058667l133.312-111.274666a21.333333 21.333333 0 0 1 21.546667-3.456l229.930667 91.264 151.68-126.826667a21.333333 21.333333 0 0 1 30.037333 2.666667z m-1.621333-417.962667l16.896 13.013333a21.333333 21.333333 0 0 1 3.925333 29.888L685.802667 433.706667a21.333333 21.333333 0 0 1-20.202667 8.085333l-226.794667-35.413333-150.186666 222.357333a21.333333 21.333333 0 0 1-27.477334 7.018667l-2.133333-1.28-17.685333-11.946667a21.333333 21.333333 0 0 1-5.738667-29.610667l165.354667-244.821333a21.333333 21.333333 0 0 1 20.992-9.130667L650.453333 374.613333l175.146667-227.882666a21.333333 21.333333 0 0 1 29.930667-3.904z" fill="#1D73B1" p-id="3953"></path></svg>