<?xml version="1.0" standalone="no"?><!DOCTYPE svg PUBLIC "-//W3C//DTD SVG 1.1//EN" "http://www.w3.org/Graphics/SVG/1.1/DTD/svg11.dtd"><svg t="1652077851486" class="icon" viewBox="0 0 1024 1024" version="1.1" xmlns="http://www.w3.org/2000/svg" p-id="34882" xmlns:xlink="http://www.w3.org/1999/xlink" width="200" height="200"><defs><style type="text/css">@font-face { font-family: feedback-iconfont; src: url("//at.alicdn.com/t/font_1031158_u69w8yhxdu.woff2?t=1630033759944") format("woff2"), url("//at.alicdn.com/t/font_1031158_u69w8yhxdu.woff?t=1630033759944") format("woff"), url("//at.alicdn.com/t/font_1031158_u69w8yhxdu.ttf?t=1630033759944") format("truetype"); }
</style></defs><path d="M798.9 71.5H225.3c-70.6 0-128 57.4-128 128V896c0 70.6 57.4 128 128 128h573.6c70.6 0 128-57.4 128-128V199.5c0.1-70.6-57.4-128-128-128zM585.3 781.2H268.6V730h316.7v51.2z m163.9-207.5H268.6v-51.2h480.6v51.2z m0-203.1H268.6v-51.2h480.6v51.2z" fill="#52C7B0" p-id="34883"></path><path d="M317.3 0.1h51.2v156h-51.2zM657.8 0.1H709v156h-51.2z" fill="#52C7B0" p-id="34884"></path></svg>