<?xml version="1.0" standalone="no"?><!DOCTYPE svg PUBLIC "-//W3C//DTD SVG 1.1//EN" "http://www.w3.org/Graphics/SVG/1.1/DTD/svg11.dtd"><svg t="1629782416215" class="icon" viewBox="0 0 1024 1024" version="1.1" xmlns="http://www.w3.org/2000/svg" p-id="2536" xmlns:xlink="http://www.w3.org/1999/xlink" width="200" height="200"><defs><style type="text/css"></style></defs><path d="M512 62C263.5 62 62 263.5 62 512s201.5 450 450 450 450-201.5 450-450S760.5 62 512 62z m0 810c-198.8 0-360-161.2-360-360s161.2-360 360-360 360 161.2 360 360-161.2 360-360 360z" fill="#515151" p-id="2537"></path><path d="M692.3 331.7c-17.5-17.5-46.1-17.5-63.6 0L512 448.4 395.3 331.7c-17.5-17.5-46.1-17.5-63.6 0s-17.5 46.1 0 63.6L448.4 512 331.7 628.7c-17.5 17.5-17.5 46.1 0 63.6s46.1 17.5 63.6 0L512 575.6l116.7 116.7c17.5 17.5 46.1 17.5 63.6 0s17.5-46.1 0-63.6L575.6 512l116.7-116.7c17.5-17.5 17.5-46.1 0-63.6z" fill="#515151" p-id="2538"></path></svg>