<?xml version="1.0" standalone="no"?><!DOCTYPE svg PUBLIC "-//W3C//DTD SVG 1.1//EN" "http://www.w3.org/Graphics/SVG/1.1/DTD/svg11.dtd"><svg t="1623238685432" class="icon" viewBox="0 0 1024 1024" version="1.1" xmlns="http://www.w3.org/2000/svg" p-id="2549" xmlns:xlink="http://www.w3.org/1999/xlink" width="200" height="200"><defs><style type="text/css"></style></defs><path d="M776.5 690.4c0 22-17.9 39.8-39.8 39.8H239.4L309 408.5c0-22 17.7-39.8 39.7-39.8h457.7c22 0 39.7 17.9 39.7 39.8l-69.6 281.9zM318.9 338.8h447.6v-39.1c0-22-17.9-39.8-39.8-39.8H488.1v-36c0-22-17.9-39.8-39.8-39.8H249.4c-22 0-39.8 17.9-39.8 39.8v466.4l69.6-311.8c-0.1-21.8 17.7-39.7 39.7-39.7z" p-id="2550"></path></svg>