<?xml version="1.0" standalone="no"?><!DOCTYPE svg PUBLIC "-//W3C//DTD SVG 1.1//EN" "http://www.w3.org/Graphics/SVG/1.1/DTD/svg11.dtd"><svg t="1625731125221" class="icon" viewBox="0 0 1024 1024" version="1.1" xmlns="http://www.w3.org/2000/svg" p-id="2414" xmlns:xlink="http://www.w3.org/1999/xlink" width="200" height="200"><defs><style type="text/css"></style></defs><path d="M508.062 68c143.317 67.291 258.119 104.66 344.405 112.11C870.305 181.648 884 196.577 884 214.48v333.564C853.667 748.94 728 886.258 507 960c-223.854-74.019-349.521-211.337-377-411.955V215.16c0-18.16 14.077-33.21 32.195-34.423 89.313-5.98 204.602-43.558 345.867-112.736z m-0.166 69.589c-132.617 65.006-238.082 96.951-316.394 95.834l-2.365-0.044v309.354C212.306 712.05 318.26 827.942 507 890.411c184.47-61.614 290.161-175.816 317.071-342.607l0.792-5.07V233.378c-75.11 0.153-180.766-31.777-316.967-95.79zM708.97 358.073c12.69 12.766 12.69 33.448 0 46.214l-227.762 228.89a32.468 32.468 0 0 1-23.007 9.565c-8.34 0-16.646-3.2-23.007-9.566L305.03 502.386c-12.69-12.765-12.69-33.48 0-46.245 12.723-12.766 33.324-12.766 46.014 0L458.2 563.807l204.755-205.734c12.69-12.798 33.291-12.798 46.014 0z" fill="#ffffff" p-id="2415"></path></svg>