<?xml version="1.0" standalone="no"?><!DOCTYPE svg PUBLIC "-//W3C//DTD SVG 1.1//EN" "http://www.w3.org/Graphics/SVG/1.1/DTD/svg11.dtd"><svg t="1625727810171" class="icon" viewBox="0 0 1024 1024" version="1.1" xmlns="http://www.w3.org/2000/svg" p-id="2472" xmlns:xlink="http://www.w3.org/1999/xlink" width="200" height="200"><defs><style type="text/css"></style></defs><path d="M511.9 820c-28.6 0-52 23.3-52 52s23.3 52 52 52c28.6 0 52-23.3 52-52s-23.3-52-52-52zM769 2H254.9c-43.3 0-78.5 35.2-78.5 78.5v863.1c0 43.3 35.2 78.5 78.5 78.5h514.3c43.3 0 78.5-35.2 78.5-78.5V80.5C847.5 37.2 812.3 2 769 2zM254.9 54.3h514.3c14.4 0 26.2 11.7 26.2 26.2V727H228.7V80.4c0-14.4 11.7-26.1 26.2-26.1zM769 969.6H254.9c-14.4 0-26.2-11.7-26.2-26.2V783.8h566.6v159.6c-0.1 14.5-11.8 26.2-26.3 26.2z" p-id="2473" fill="#ffffff"></path></svg>