<?xml version="1.0" standalone="no"?><!DOCTYPE svg PUBLIC "-//W3C//DTD SVG 1.1//EN" "http://www.w3.org/Graphics/SVG/1.1/DTD/svg11.dtd"><svg t="1625727899030" class="icon" viewBox="0 0 1024 1024" version="1.1" xmlns="http://www.w3.org/2000/svg" p-id="5458" xmlns:xlink="http://www.w3.org/1999/xlink" width="200" height="200"><defs><style type="text/css"></style></defs><path d="M817.079812 390.04953H756.063133v-81.339539c0-134.512576-109.475344-243.931638-244.062621-243.931639S267.93482 174.197414 267.93482 308.707944v81.341586h-61.015655c-33.69952 0-61.016679 27.301809-61.016679 60.98291v447.206298c0 33.679054 27.318182 60.98291 61.016679 60.98291h610.160647c33.69952 0 61.016679-27.302833 61.016679-60.98291V451.031417c0-33.680077-27.318182-60.981886-61.016679-60.981887z m-488.129336-81.341586c0-100.882642 82.109066-182.948729 183.049012-182.948729 100.939947 0 183.049013 82.066087 183.049013 182.948729v81.341586h-366.098025v-81.341586z m488.129336 589.530794H206.919165V451.031417h610.160647v447.207321z" p-id="5459" fill="#ffffff"></path><path d="M512.000512 786.446629c16.84362 0 30.507828-13.657045 30.507827-30.491455V593.335447c0-16.832364-13.664208-30.491455-30.507827-30.491455s-30.507828 13.659091-30.507828 30.491455v162.620751c-0.001023 16.83441 13.664208 30.490431 30.507828 30.490431z" p-id="5460" fill="#ffffff"></path></svg>